# xmcd
#
# Track frame offsets: 
#        183
#        5995
#        38283
#        48943
#        65695
#        79565
#        96795
#        114643
#        128968
#        145328
#        163168
#        183483
#
# Disc length: 2580 seconds
#
# Revision: 5
# Processed by: cddbd v1.4PL0 Copyright (c) Steve Scherf et al.
# Submitted via: ExactAudioCopy v0.90b4
#
DISCID=a10a120c
DTITLE=Squallor - Palle
DYEAR=1974
DGENRE=Demenziale
TTITLE0=Palle
TTITLE1=Marcia longa
TTITLE2=Bla bla bla
TTITLE3=Sono una donna non sono una santa
TTITLE4=Santanna
TTITLE5=Angeli negri
TTITLE6=Quando mai
TTITLE7=Bla bla bla
TTITLE8=Il Vangelo sencondo Chinaglia
TTITLE9=Veramon
TTITLE10=Marica longa
TTITLE11=Palle
EXTD=
EXTT0=
EXTT1=
EXTT2=
EXTT3=
EXTT4=
EXTT5=
EXTT6=
EXTT7=
EXTT8=
EXTT9=
EXTT10=
EXTT11=
PLAYORDER=
